{"title":"Transformers Dark of the Moon 2011 TS XViD - IMAGiNE","uid":6515168,"size":2111628734,"categoryP":"video","categoryS":"movies","magnet":"?xt=urn:btih:a22ef355dbe2dcdb114c28d966cff1fd718574a2&amp;dn=Transformers+Dark+of+the+Moon+2011+TS+XViD+-+IMAGiNE&amp;tr=udp%3A%2F%2Ftracker.openbittorrent.com%3A80&amp;tr=udp%3A%2F%2Fopen.demonii.com%3A1337&amp;tr=udp%3A%2F%2Ftracker.coppersurfer.tk%3A6969&amp;tr=udp%3A%2F%2Fexodus.desync.com%3A6969","seeders":4,"leechers":0,"uploader":"razvanripper","files":-1,"time":1309786023,"description":"Another Fine Release Brought to you from - IMAGiNE\n\n\n********************************************************************************************************************\nTransformers Dark Of The Moon 2011 TS XViD - IMAGiNE\n********************************************************************************************************************\n\nRipper ...........: IMAGiNEIMDB Rating.......: 7.0/10\nVideo Codec.......: XVID Release Date......: 02/07/11\nAudio Codec.......: MP3Theatre Date......: 29/06/11\nAudio Bitrate.....: 128Runtime.......: 2h 25mn\nSubtitles.........: ENG WHEN NEEDEDLanguage..........: ENGLISH\nResolution......: 720 x 288IMDb URL..........: http://www.imdb.com/title/tt1399103/\n\n\nDETAILS:\n\nVideo\nID : 0\nFormat : MPEG-4 Visual\nFormat profile : Advanced Simple@L5\nFormat settings, BVOP: 2\nFormat settings, QPel: No\nFormat settings, GMC : No warppoints\nFormat settings, Matrix: Default (MPEG)\nMuxing mode: Packed bitstream\nCodec ID : XVID\nCodec ID/Hint: XviD\nDuration : 2h 25mn\nBit rate : 1 792 Kbps\nWidth: 720 pixels\nHeight : 288 pixels\nDisplay aspect ratio : 2.500\nFrame rate : 23.976 fps\nColor space: YUV\nChroma subsampling : 4:2:0\nBit depth: 8 bits\nScan type: Progressive\nCompression mode : Lossy\nBits/(Pixel*Frame) : 0.360\nStream size: 1.83 GiB (93%)\nWriting library: XviD 1.2.1 (UTC 2008-12-04)\n\nAudio\nID : 1\nFormat : MPEG Audio\nFormat version : Version 1\nFormat profile : Layer 3\nCodec ID : 55\nCodec ID/Hint: MP3\nDuration : 2h 25mn\nBit rate mode: Constant\nBit rate : 128 Kbps\nChannel(s) : 2 channels\nSampling rate: 44.1 KHz\nCompression mode : Lossy\nStream size: 134 MiB (7%)\nAlignment: Split accross interleaves\nInterleave, duration : 42 ms (1.00 video frame)\n\n\n\nSOURCES:\n\nVIDEO: ............. Thanx Mate :P\nAUDIO: ............. Thanks Matey :D\n\nNOTES:\n\nIMAGiNE bringing you another release..........\nTransformers Dark Of The Moon TS...........\nOk heres our first go at Transformers.........\nSource was very nice 1080p cam which didnt need much work :D\nFirst we made a script to crop resize and rotate........\nNext we adjusted the RBG and brightness to level things\nout as it was a bit green from the source :P\nAudio is nice LiNE we filtered synced and muxed to our encode\nNow it aint gonna get much better than this folks\nEnjoy!\nSCREENS:\t","torrent":{"xt":"urn:btih:a22ef355dbe2dcdb114c28d966cff1fd718574a2","amp;dn":"Transformers+Dark+of+the+Moon+2011+TS+XViD+-+IMAGiNE","amp;tr":["udp%3A%2F%2Ftracker.openbittorrent.com%3A80","udp%3A%2F%2Fopen.demonii.com%3A1337","udp%3A%2F%2Ftracker.coppersurfer.tk%3A6969","udp%3A%2F%2Fexodus.desync.com%3A6969"],"infoHash":"a22ef355dbe2dcdb114c28d966cff1fd718574a2","infoHashBuffer":{"type":"Buffer","data":[162,46,243,85,219,226,220,219,17,76,40,217,102,207,241,253,113,133,116,162]},"announce":[],"urlList":[]}}